<?xml version="1.0" encoding="utf-8" standalone="no"?>
<!DOCTYPE svg PUBLIC "-//W3C//DTD SVG 1.1//EN"
  "http://www.w3.org/Graphics/SVG/1.1/DTD/svg11.dtd">
<svg height="345.6pt" version="1.1" viewBox="0 0 460.8 345.6" width="460.8pt" xmlns="http://www.w3.org/2000/svg" xmlns:xlink="http://www.w3.org/1999/xlink">
 <metadata>
  <rdf:RDF xmlns:cc="http://creativecommons.org/ns#" xmlns:dc="http://purl.org/dc/elements/1.1/" xmlns:rdf="http://www.w3.org/1999/02/22-rdf-syntax-ns#">
   <cc:Work>
    <dc:type rdf:resource="http://purl.org/dc/dcmitype/StillImage"/>
    <dc:date>2021-05-11T12:51:07.144849</dc:date>
    <dc:format>image/svg+xml</dc:format>
    <dc:creator>
     <cc:Agent>
      <dc:title>Matplotlib v3.4.1, https://matplotlib.org/</dc:title>
     </cc:Agent>
    </dc:creator>
   </cc:Work>
  </rdf:RDF>
 </metadata>
 <defs>
  <style type="text/css">*{stroke-linecap:butt;stroke-linejoin:round;}</style>
 </defs>
 <g id="figure_1">
  <g id="patch_1">
   <path d="M 0 345.6 
L 460.8 345.6 
L 460.8 0 
L 0 0 
z
" style="fill:#ffffff;"/>
  </g>
  <g id="axes_1">
   <g id="patch_2">
    <path d="M 57.6 307.584 
L 414.72 307.584 
L 414.72 41.472 
L 57.6 41.472 
z
" style="fill:#ffffff;"/>
   </g>
   <g id="PolyCollection_1">
    <defs>
     <path d="M 73.832727 -38.033399 
L 73.832727 -38.016 
L 75.464157 -38.016 
L 77.095587 -38.016 
L 78.727017 -38.016 
L 80.358447 -38.016 
L 81.989877 -38.016 
L 83.621307 -38.016 
L 85.252736 -38.016 
L 86.884166 -38.016 
L 88.515596 -38.016 
L 90.147026 -38.016 
L 91.778456 -38.016 
L 93.409886 -38.016 
L 95.041316 -38.016 
L 96.672746 -38.016 
L 98.304175 -38.016 
L 99.935605 -38.016 
L 101.567035 -38.016 
L 103.198465 -38.016 
L 104.829895 -38.016 
L 106.461325 -38.016 
L 108.092755 -38.016 
L 109.724185 -38.016 
L 111.355614 -38.016 
L 112.987044 -38.016 
L 114.618474 -38.016 
L 116.249904 -38.016 
L 117.881334 -38.016 
L 119.512764 -38.016 
L 121.144194 -38.016 
L 122.775624 -38.016 
L 124.407053 -38.016 
L 126.038483 -38.016 
L 127.669913 -38.016 
L 129.301343 -38.016 
L 130.932773 -38.016 
L 132.564203 -38.016 
L 134.195633 -38.016 
L 135.827063 -38.016 
L 137.458492 -38.016 
L 139.089922 -38.016 
L 140.721352 -38.016 
L 142.352782 -38.016 
L 143.984212 -38.016 
L 145.615642 -38.016 
L 147.247072 -38.016 
L 148.878502 -38.016 
L 150.509931 -38.016 
L 152.141361 -38.016 
L 153.772791 -38.016 
L 155.404221 -38.016 
L 157.035651 -38.016 
L 158.667081 -38.016 
L 160.298511 -38.016 
L 161.929941 -38.016 
L 163.56137 -38.016 
L 165.1928 -38.016 
L 166.82423 -38.016 
L 168.45566 -38.016 
L 170.08709 -38.016 
L 171.71852 -38.016 
L 173.34995 -38.016 
L 174.98138 -38.016 
L 176.61281 -38.016 
L 178.244239 -38.016 
L 179.875669 -38.016 
L 181.507099 -38.016 
L 183.138529 -38.016 
L 184.769959 -38.016 
L 186.401389 -38.016 
L 188.032819 -38.016 
L 189.664249 -38.016 
L 191.295678 -38.016 
L 192.927108 -38.016 
L 194.558538 -38.016 
L 196.189968 -38.016 
L 197.821398 -38.016 
L 199.452828 -38.016 
L 201.084258 -38.016 
L 202.715688 -38.016 
L 204.347117 -38.016 
L 205.978547 -38.016 
L 207.609977 -38.016 
L 209.241407 -38.016 
L 210.872837 -38.016 
L 212.504267 -38.016 
L 214.135697 -38.016 
L 215.767127 -38.016 
L 217.398556 -38.016 
L 219.029986 -38.016 
L 220.661416 -38.016 
L 222.292846 -38.016 
L 223.924276 -38.016 
L 225.555706 -38.016 
L 227.187136 -38.016 
L 228.818566 -38.016 
L 230.449995 -38.016 
L 232.081425 -38.016 
L 233.712855 -38.016 
L 235.344285 -38.016 
L 236.975715 -38.016 
L 238.607145 -38.016 
L 240.238575 -38.016 
L 241.870005 -38.016 
L 243.501434 -38.016 
L 245.132864 -38.016 
L 246.764294 -38.016 
L 248.395724 -38.016 
L 250.027154 -38.016 
L 251.658584 -38.016 
L 253.290014 -38.016 
L 254.921444 -38.016 
L 256.552873 -38.016 
L 258.184303 -38.016 
L 259.815733 -38.016 
L 261.447163 -38.016 
L 263.078593 -38.016 
L 264.710023 -38.016 
L 266.341453 -38.016 
L 267.972883 -38.016 
L 269.604312 -38.016 
L 271.235742 -38.016 
L 272.867172 -38.016 
L 274.498602 -38.016 
L 276.130032 -38.016 
L 277.761462 -38.016 
L 279.392892 -38.016 
L 281.024322 -38.016 
L 282.655751 -38.016 
L 284.287181 -38.016 
L 285.918611 -38.016 
L 287.550041 -38.016 
L 289.181471 -38.016 
L 290.812901 -38.016 
L 292.444331 -38.016 
L 294.075761 -38.016 
L 295.70719 -38.016 
L 297.33862 -38.016 
L 298.97005 -38.016 
L 300.60148 -38.016 
L 302.23291 -38.016 
L 303.86434 -38.016 
L 305.49577 -38.016 
L 307.1272 -38.016 
L 308.75863 -38.016 
L 310.390059 -38.016 
L 312.021489 -38.016 
L 313.652919 -38.016 
L 315.284349 -38.016 
L 316.915779 -38.016 
L 318.547209 -38.016 
L 320.178639 -38.016 
L 321.810069 -38.016 
L 323.441498 -38.016 
L 325.072928 -38.016 
L 326.704358 -38.016 
L 328.335788 -38.016 
L 329.967218 -38.016 
L 331.598648 -38.016 
L 333.230078 -38.016 
L 334.861508 -38.016 
L 336.492937 -38.016 
L 338.124367 -38.016 
L 339.755797 -38.016 
L 341.387227 -38.016 
L 343.018657 -38.016 
L 344.650087 -38.016 
L 346.281517 -38.016 
L 347.912947 -38.016 
L 349.544376 -38.016 
L 351.175806 -38.016 
L 352.807236 -38.016 
L 354.438666 -38.016 
L 356.070096 -38.016 
L 357.701526 -38.016 
L 359.332956 -38.016 
L 360.964386 -38.016 
L 362.595815 -38.016 
L 364.227245 -38.016 
L 365.858675 -38.016 
L 367.490105 -38.016 
L 369.121535 -38.016 
L 370.752965 -38.016 
L 372.384395 -38.016 
L 374.015825 -38.016 
L 375.647254 -38.016 
L 377.278684 -38.016 
L 378.910114 -38.016 
L 380.541544 -38.016 
L 382.172974 -38.016 
L 383.804404 -38.016 
L 385.435834 -38.016 
L 387.067264 -38.016 
L 388.698693 -38.016 
L 390.330123 -38.016 
L 391.961553 -38.016 
L 393.592983 -38.016 
L 395.224413 -38.016 
L 396.855843 -38.016 
L 398.487273 -38.016 
L 398.487273 -38.152885 
L 398.487273 -38.152885 
L 396.855843 -38.238539 
L 395.224413 -38.370012 
L 393.592983 -38.567181 
L 391.961553 -38.856136 
L 390.330123 -39.270038 
L 388.698693 -39.849656 
L 387.067264 -40.643399 
L 385.435834 -41.706681 
L 383.804404 -43.100497 
L 382.172974 -44.889179 
L 380.541544 -47.137408 
L 378.910114 -49.906699 
L 377.278684 -53.251667 
L 375.647254 -57.216469 
L 374.015825 -61.831852 
L 372.384395 -67.113156 
L 370.752965 -73.059532 
L 369.121535 -79.654445 
L 367.490105 -86.867356 
L 365.858675 -94.656292 
L 364.227245 -102.9709 
L 362.595815 -111.755503 
L 360.964386 -120.951719 
L 359.332956 -130.500281 
L 357.701526 -140.341869 
L 356.070096 -150.416928 
L 354.438666 -160.664631 
L 352.807236 -171.021314 
L 351.175806 -181.418783 
L 349.544376 -191.782969 
L 347.912947 -202.033315 
L 346.281517 -212.083227 
L 344.650087 -221.841697 
L 343.018657 -231.216041 
L 341.387227 -240.115466 
L 339.755797 -248.455033 
L 338.124367 -256.159482 
L 336.492937 -263.166392 
L 334.861508 -269.428258 
L 333.230078 -274.913218 
L 331.598648 -279.604421 
L 329.967218 -283.498207 
L 328.335788 -286.601487 
L 326.704358 -288.928745 
L 325.072928 -290.499154 
L 323.441498 -291.334191 
L 321.810069 -291.456 
L 320.178639 -290.886618 
L 318.547209 -289.648023 
L 316.915779 -287.762848 
L 315.284349 -285.255533 
L 313.652919 -282.153666 
L 312.021489 -278.489275 
L 310.390059 -274.299854 
L 308.75863 -269.628984 
L 307.1272 -264.526415 
L 305.49577 -259.047578 
L 303.86434 -253.252512 
L 302.23291 -247.204249 
L 300.60148 -240.966777 
L 298.97005 -234.602727 
L 297.33862 -228.170994 
L 295.70719 -221.72452 
L 294.075761 -215.308482 
L 292.444331 -208.959094 
L 290.812901 -202.703194 
L 289.181471 -196.558662 
L 287.550041 -190.535662 
L 285.918611 -184.638568 
L 284.287181 -178.868313 
L 282.655751 -173.224889 
L 281.024322 -167.709634 
L 279.392892 -162.326991 
L 277.761462 -157.085486 
L 276.130032 -151.997765 
L 274.498602 -147.079694 
L 272.867172 -142.34865 
L 271.235742 -137.821299 
L 269.604312 -133.511208 
L 267.972883 -129.426732 
L 266.341453 -125.569512 
L 264.710023 -121.933881 
L 263.078593 -118.507258 
L 261.447163 -115.271476 
L 259.815733 -112.204799 
L 258.184303 -109.284277 
L 256.552873 -106.488049 
L 254.921444 -103.797216 
L 253.290014 -101.197062 
L 251.658584 -98.677471 
L 250.027154 -96.232627 
L 248.395724 -93.86015 
L 246.764294 -91.559927 
L 245.132864 -89.332926 
L 243.501434 -87.180216 
L 241.870005 -85.102357 
L 240.238575 -83.099208 
L 238.607145 -81.170109 
L 236.975715 -79.314321 
L 235.344285 -77.53157 
L 233.712855 -75.82251 
L 232.081425 -74.189001 
L 230.449995 -72.634093 
L 228.818566 -71.161718 
L 227.187136 -69.776132 
L 225.555706 -68.481214 
L 223.924276 -67.279754 
L 222.292846 -66.17287 
L 220.661416 -65.159667 
L 219.029986 -64.237199 
L 217.398556 -63.400752 
L 215.767127 -62.644387 
L 214.135697 -61.961649 
L 212.504267 -61.346323 
L 210.872837 -60.793108 
L 209.241407 -60.298111 
L 207.609977 -59.8591 
L 205.978547 -59.475496 
L 204.347117 -59.148128 
L 202.715688 -58.878809 
L 201.084258 -58.669817 
L 199.452828 -58.523365 
L 197.821398 -58.441156 
L 196.189968 -58.424097 
L 194.558538 -58.472237 
L 192.927108 -58.584969 
L 191.295678 -58.761508 
L 189.664249 -59.001621 
L 188.032819 -59.306571 
L 186.401389 -59.680185 
L 184.769959 -60.129949 
L 183.138529 -60.667996 
L 181.507099 -61.311886 
L 179.875669 -62.085035 
L 178.244239 -63.016691 
L 176.61281 -64.141365 
L 174.98138 -65.497644 
L 173.34995 -67.126298 
L 171.71852 -69.067645 
L 170.08709 -71.358134 
L 168.45566 -74.026157 
L 166.82423 -77.087182 
L 165.1928 -80.53846 
L 163.56137 -84.353675 
L 161.929941 -88.478177 
L 160.298511 -92.82553 
L 158.667081 -97.276255 
L 157.035651 -101.679568 
L 155.404221 -105.858707 
L 153.772791 -109.620025 
L 152.141361 -112.765493 
L 150.509931 -115.107664 
L 148.878502 -116.485599 
L 147.247072 -116.779907 
L 145.615642 -115.924962 
L 143.984212 -113.916618 
L 142.352782 -110.814265 
L 140.721352 -106.736832 
L 139.089922 -101.853188 
L 137.458492 -96.368128 
L 135.827063 -90.505717 
L 134.195633 -84.491981 
L 132.564203 -78.538902 
L 130.932773 -72.831286 
L 129.301343 -67.517577 
L 127.669913 -62.704991 
L 126.038483 -58.458833 
L 124.407053 -54.805322 
L 122.775624 -51.737018 
L 121.144194 -49.219781 
L 119.512764 -47.200322 
L 117.881334 -45.613506 
L 116.249904 -44.388864 
L 114.618474 -43.455976 
L 112.987044 -42.748595 
L 111.355614 -42.207543 
L 109.724185 -41.7825 
L 108.092755 -41.432848 
L 106.461325 -41.127727 
L 104.829895 -40.845489 
L 103.198465 -40.572671 
L 101.567035 -40.302643 
L 99.935605 -40.034066 
L 98.304175 -39.769292 
L 96.672746 -39.512834 
L 95.041316 -39.27002 
L 93.409886 -39.045917 
L 91.778456 -38.844569 
L 90.147026 -38.668566 
L 88.515596 -38.518909 
L 86.884166 -38.395109 
L 85.252736 -38.295462 
L 83.621307 -38.217402 
L 81.989877 -38.157874 
L 80.358447 -38.113672 
L 78.727017 -38.081707 
L 77.095587 -38.05919 
L 75.464157 -38.043735 
L 73.832727 -38.033399 
z
" id="m5744c89365" style="stroke:#1f77b4;"/>
    </defs>
    <g clip-path="url(#p8e97267f88)">
     <use style="fill:#1f77b4;fill-opacity:0.25;stroke:#1f77b4;" x="0" xlink:href="#m5744c89365" y="345.6"/>
    </g>
   </g>
   <g id="matplotlib.axis_1">
    <g id="xtick_1">
     <g id="line2d_1">
      <defs>
       <path d="M 0 0 
L 0 3.5 
" id="m20c86896e9" style="stroke:#000000;stroke-width:0.8;"/>
      </defs>
      <g>
       <use style="stroke:#000000;stroke-width:0.8;" x="76.235375" xlink:href="#m20c86896e9" y="307.584"/>
      </g>
     </g>
     <g id="text_1">
      <!-- 0 -->
      <g transform="translate(73.690375 320.66275)scale(0.08 -0.08)">
       <defs>
        <path d="M 2034 4250 
Q 1547 4250 1301 3770 
Q 1056 3291 1056 2328 
Q 1056 1369 1301 889 
Q 1547 409 2034 409 
Q 2525 409 2770 889 
Q 3016 1369 3016 2328 
Q 3016 3291 2770 3770 
Q 2525 4250 2034 4250 
z
M 2034 4750 
Q 2819 4750 3233 4129 
Q 3647 3509 3647 2328 
Q 3647 1150 3233 529 
Q 2819 -91 2034 -91 
Q 1250 -91 836 529 
Q 422 1150 422 2328 
Q 422 3509 836 4129 
Q 1250 4750 2034 4750 
z
" id="DejaVuSans-30" transform="scale(0.015625)"/>
       </defs>
       <use xlink:href="#DejaVuSans-30"/>
      </g>
     </g>
    </g>
    <g id="xtick_2">
     <g id="line2d_2">
      <g>
       <use style="stroke:#000000;stroke-width:0.8;" x="134.389784" xlink:href="#m20c86896e9" y="307.584"/>
      </g>
     </g>
     <g id="text_2">
      <!-- 2 -->
      <g transform="translate(131.844784 320.66275)scale(0.08 -0.08)">
       <defs>
        <path d="M 1228 531 
L 3431 531 
L 3431 0 
L 469 0 
L 469 531 
Q 828 903 1448 1529 
Q 2069 2156 2228 2338 
Q 2531 2678 2651 2914 
Q 2772 3150 2772 3378 
Q 2772 3750 2511 3984 
Q 2250 4219 1831 4219 
Q 1534 4219 1204 4116 
Q 875 4013 500 3803 
L 500 4441 
Q 881 4594 1212 4672 
Q 1544 4750 1819 4750 
Q 2544 4750 2975 4387 
Q 3406 4025 3406 3419 
Q 3406 3131 3298 2873 
Q 3191 2616 2906 2266 
Q 2828 2175 2409 1742 
Q 1991 1309 1228 531 
z
" id="DejaVuSans-32" transform="scale(0.015625)"/>
       </defs>
       <use xlink:href="#DejaVuSans-32"/>
      </g>
     </g>
    </g>
    <g id="xtick_3">
     <g id="line2d_3">
      <g>
       <use style="stroke:#000000;stroke-width:0.8;" x="192.544193" xlink:href="#m20c86896e9" y="307.584"/>
      </g>
     </g>
     <g id="text_3">
      <!-- 4 -->
      <g transform="translate(189.999193 320.66275)scale(0.08 -0.08)">
       <defs>
        <path d="M 2419 4116 
L 825 1625 
L 2419 1625 
L 2419 4116 
z
M 2253 4666 
L 3047 4666 
L 3047 1625 
L 3713 1625 
L 3713 1100 
L 3047 1100 
L 3047 0 
L 2419 0 
L 2419 1100 
L 313 1100 
L 313 1709 
L 2253 4666 
z
" id="DejaVuSans-34" transform="scale(0.015625)"/>
       </defs>
       <use xlink:href="#DejaVuSans-34"/>
      </g>
     </g>
    </g>
    <g id="xtick_4">
     <g id="line2d_4">
      <g>
       <use style="stroke:#000000;stroke-width:0.8;" x="250.698602" xlink:href="#m20c86896e9" y="307.584"/>
      </g>
     </g>
     <g id="text_4">
      <!-- 6 -->
      <g transform="translate(248.153602 320.66275)scale(0.08 -0.08)">
       <defs>
        <path d="M 2113 2584 
Q 1688 2584 1439 2293 
Q 1191 2003 1191 1497 
Q 1191 994 1439 701 
Q 1688 409 2113 409 
Q 2538 409 2786 701 
Q 3034 994 3034 1497 
Q 3034 2003 2786 2293 
Q 2538 2584 2113 2584 
z
M 3366 4563 
L 3366 3988 
Q 3128 4100 2886 4159 
Q 2644 4219 2406 4219 
Q 1781 4219 1451 3797 
Q 1122 3375 1075 2522 
Q 1259 2794 1537 2939 
Q 1816 3084 2150 3084 
Q 2853 3084 3261 2657 
Q 3669 2231 3669 1497 
Q 3669 778 3244 343 
Q 2819 -91 2113 -91 
Q 1303 -91 875 529 
Q 447 1150 447 2328 
Q 447 3434 972 4092 
Q 1497 4750 2381 4750 
Q 2619 4750 2861 4703 
Q 3103 4656 3366 4563 
z
" id="DejaVuSans-36" transform="scale(0.015625)"/>
       </defs>
       <use xlink:href="#DejaVuSans-36"/>
      </g>
     </g>
    </g>
    <g id="xtick_5">
     <g id="line2d_5">
      <g>
       <use style="stroke:#000000;stroke-width:0.8;" x="308.853011" xlink:href="#m20c86896e9" y="307.584"/>
      </g>
     </g>
     <g id="text_5">
      <!-- 8 -->
      <g transform="translate(306.308011 320.66275)scale(0.08 -0.08)">
       <defs>
        <path d="M 2034 2216 
Q 1584 2216 1326 1975 
Q 1069 1734 1069 1313 
Q 1069 891 1326 650 
Q 1584 409 2034 409 
Q 2484 409 2743 651 
Q 3003 894 3003 1313 
Q 3003 1734 2745 1975 
Q 2488 2216 2034 2216 
z
M 1403 2484 
Q 997 2584 770 2862 
Q 544 3141 544 3541 
Q 544 4100 942 4425 
Q 1341 4750 2034 4750 
Q 2731 4750 3128 4425 
Q 3525 4100 3525 3541 
Q 3525 3141 3298 2862 
Q 3072 2584 2669 2484 
Q 3125 2378 3379 2068 
Q 3634 1759 3634 1313 
Q 3634 634 3220 271 
Q 2806 -91 2034 -91 
Q 1263 -91 848 271 
Q 434 634 434 1313 
Q 434 1759 690 2068 
Q 947 2378 1403 2484 
z
M 1172 3481 
Q 1172 3119 1398 2916 
Q 1625 2713 2034 2713 
Q 2441 2713 2670 2916 
Q 2900 3119 2900 3481 
Q 2900 3844 2670 4047 
Q 2441 4250 2034 4250 
Q 1625 4250 1398 4047 
Q 1172 3844 1172 3481 
z
" id="DejaVuSans-38" transform="scale(0.015625)"/>
       </defs>
       <use xlink:href="#DejaVuSans-38"/>
      </g>
     </g>
    </g>
    <g id="xtick_6">
     <g id="line2d_6">
      <g>
       <use style="stroke:#000000;stroke-width:0.8;" x="367.00742" xlink:href="#m20c86896e9" y="307.584"/>
      </g>
     </g>
     <g id="text_6">
      <!-- 10 -->
      <g transform="translate(361.91742 320.66275)scale(0.08 -0.08)">
       <defs>
        <path d="M 794 531 
L 1825 531 
L 1825 4091 
L 703 3866 
L 703 4441 
L 1819 4666 
L 2450 4666 
L 2450 531 
L 3481 531 
L 3481 0 
L 794 0 
L 794 531 
z
" id="DejaVuSans-31" transform="scale(0.015625)"/>
       </defs>
       <use xlink:href="#DejaVuSans-31"/>
       <use x="63.623047" xlink:href="#DejaVuSans-30"/>
      </g>
     </g>
    </g>
    <g id="text_7">
     <!-- RIN -->
     <g transform="translate(227.470156 333.924937)scale(0.1 -0.1)">
      <defs>
       <path d="M 2841 2188 
Q 3044 2119 3236 1894 
Q 3428 1669 3622 1275 
L 4263 0 
L 3584 0 
L 2988 1197 
Q 2756 1666 2539 1819 
Q 2322 1972 1947 1972 
L 1259 1972 
L 1259 0 
L 628 0 
L 628 4666 
L 2053 4666 
Q 2853 4666 3247 4331 
Q 3641 3997 3641 3322 
Q 3641 2881 3436 2590 
Q 3231 2300 2841 2188 
z
M 1259 4147 
L 1259 2491 
L 2053 2491 
Q 2509 2491 2742 2702 
Q 2975 2913 2975 3322 
Q 2975 3731 2742 3939 
Q 2509 4147 2053 4147 
L 1259 4147 
z
" id="DejaVuSans-52" transform="scale(0.015625)"/>
       <path d="M 628 4666 
L 1259 4666 
L 1259 0 
L 628 0 
L 628 4666 
z
" id="DejaVuSans-49" transform="scale(0.015625)"/>
       <path d="M 628 4666 
L 1478 4666 
L 3547 763 
L 3547 4666 
L 4159 4666 
L 4159 0 
L 3309 0 
L 1241 3903 
L 1241 0 
L 628 0 
L 628 4666 
z
" id="DejaVuSans-4e" transform="scale(0.015625)"/>
      </defs>
      <use xlink:href="#DejaVuSans-52"/>
      <use x="69.482422" xlink:href="#DejaVuSans-49"/>
      <use x="98.974609" xlink:href="#DejaVuSans-4e"/>
     </g>
    </g>
   </g>
   <g id="matplotlib.axis_2">
    <g id="ytick_1">
     <g id="line2d_7">
      <defs>
       <path d="M 0 0 
L -3.5 0 
" id="me927e1810f" style="stroke:#000000;stroke-width:0.8;"/>
      </defs>
      <g>
       <use style="stroke:#000000;stroke-width:0.8;" x="57.6" xlink:href="#me927e1810f" y="307.584"/>
      </g>
     </g>
     <g id="text_8">
      <!-- 0.00 -->
      <g transform="translate(32.7875 310.623375)scale(0.08 -0.08)">
       <defs>
        <path d="M 684 794 
L 1344 794 
L 1344 0 
L 684 0 
L 684 794 
z
" id="DejaVuSans-2e" transform="scale(0.015625)"/>
       </defs>
       <use xlink:href="#DejaVuSans-30"/>
       <use x="63.623047" xlink:href="#DejaVuSans-2e"/>
       <use x="95.410156" xlink:href="#DejaVuSans-30"/>
       <use x="159.033203" xlink:href="#DejaVuSans-30"/>
      </g>
     </g>
    </g>
    <g id="ytick_2">
     <g id="line2d_8">
      <g>
       <use style="stroke:#000000;stroke-width:0.8;" x="57.6" xlink:href="#me927e1810f" y="265.894962"/>
      </g>
     </g>
     <g id="text_9">
      <!-- 0.05 -->
      <g transform="translate(32.7875 268.934337)scale(0.08 -0.08)">
       <defs>
        <path d="M 691 4666 
L 3169 4666 
L 3169 4134 
L 1269 4134 
L 1269 2991 
Q 1406 3038 1543 3061 
Q 1681 3084 1819 3084 
Q 2600 3084 3056 2656 
Q 3513 2228 3513 1497 
Q 3513 744 3044 326 
Q 2575 -91 1722 -91 
Q 1428 -91 1123 -41 
Q 819 9 494 109 
L 494 744 
Q 775 591 1075 516 
Q 1375 441 1709 441 
Q 2250 441 2565 725 
Q 2881 1009 2881 1497 
Q 2881 1984 2565 2268 
Q 2250 2553 1709 2553 
Q 1456 2553 1204 2497 
Q 953 2441 691 2322 
L 691 4666 
z
" id="DejaVuSans-35" transform="scale(0.015625)"/>
       </defs>
       <use xlink:href="#DejaVuSans-30"/>
       <use x="63.623047" xlink:href="#DejaVuSans-2e"/>
       <use x="95.410156" xlink:href="#DejaVuSans-30"/>
       <use x="159.033203" xlink:href="#DejaVuSans-35"/>
      </g>
     </g>
    </g>
    <g id="ytick_3">
     <g id="line2d_9">
      <g>
       <use style="stroke:#000000;stroke-width:0.8;" x="57.6" xlink:href="#me927e1810f" y="224.205923"/>
      </g>
     </g>
     <g id="text_10">
      <!-- 0.10 -->
      <g transform="translate(32.7875 227.245298)scale(0.08 -0.08)">
       <use xlink:href="#DejaVuSans-30"/>
       <use x="63.623047" xlink:href="#DejaVuSans-2e"/>
       <use x="95.410156" xlink:href="#DejaVuSans-31"/>
       <use x="159.033203" xlink:href="#DejaVuSans-30"/>
      </g>
     </g>
    </g>
    <g id="ytick_4">
     <g id="line2d_10">
      <g>
       <use style="stroke:#000000;stroke-width:0.8;" x="57.6" xlink:href="#me927e1810f" y="182.516885"/>
      </g>
     </g>
     <g id="text_11">
      <!-- 0.15 -->
      <g transform="translate(32.7875 185.55626)scale(0.08 -0.08)">
       <use xlink:href="#DejaVuSans-30"/>
       <use x="63.623047" xlink:href="#DejaVuSans-2e"/>
       <use x="95.410156" xlink:href="#DejaVuSans-31"/>
       <use x="159.033203" xlink:href="#DejaVuSans-35"/>
      </g>
     </g>
    </g>
    <g id="ytick_5">
     <g id="line2d_11">
      <g>
       <use style="stroke:#000000;stroke-width:0.8;" x="57.6" xlink:href="#me927e1810f" y="140.827846"/>
      </g>
     </g>
     <g id="text_12">
      <!-- 0.20 -->
      <g transform="translate(32.7875 143.867221)scale(0.08 -0.08)">
       <use xlink:href="#DejaVuSans-30"/>
       <use x="63.623047" xlink:href="#DejaVuSans-2e"/>
       <use x="95.410156" xlink:href="#DejaVuSans-32"/>
       <use x="159.033203" xlink:href="#DejaVuSans-30"/>
      </g>
     </g>
    </g>
    <g id="ytick_6">
     <g id="line2d_12">
      <g>
       <use style="stroke:#000000;stroke-width:0.8;" x="57.6" xlink:href="#me927e1810f" y="99.138808"/>
      </g>
     </g>
     <g id="text_13">
      <!-- 0.25 -->
      <g transform="translate(32.7875 102.178183)scale(0.08 -0.08)">
       <use xlink:href="#DejaVuSans-30"/>
       <use x="63.623047" xlink:href="#DejaVuSans-2e"/>
       <use x="95.410156" xlink:href="#DejaVuSans-32"/>
       <use x="159.033203" xlink:href="#DejaVuSans-35"/>
      </g>
     </g>
    </g>
    <g id="ytick_7">
     <g id="line2d_13">
      <g>
       <use style="stroke:#000000;stroke-width:0.8;" x="57.6" xlink:href="#me927e1810f" y="57.449769"/>
      </g>
     </g>
     <g id="text_14">
      <!-- 0.30 -->
      <g transform="translate(32.7875 60.489144)scale(0.08 -0.08)">
       <defs>
        <path d="M 2597 2516 
Q 3050 2419 3304 2112 
Q 3559 1806 3559 1356 
Q 3559 666 3084 287 
Q 2609 -91 1734 -91 
Q 1441 -91 1130 -33 
Q 819 25 488 141 
L 488 750 
Q 750 597 1062 519 
Q 1375 441 1716 441 
Q 2309 441 2620 675 
Q 2931 909 2931 1356 
Q 2931 1769 2642 2001 
Q 2353 2234 1838 2234 
L 1294 2234 
L 1294 2753 
L 1863 2753 
Q 2328 2753 2575 2939 
Q 2822 3125 2822 3475 
Q 2822 3834 2567 4026 
Q 2313 4219 1838 4219 
Q 1578 4219 1281 4162 
Q 984 4106 628 3988 
L 628 4550 
Q 988 4650 1302 4700 
Q 1616 4750 1894 4750 
Q 2613 4750 3031 4423 
Q 3450 4097 3450 3541 
Q 3450 3153 3228 2886 
Q 3006 2619 2597 2516 
z
" id="DejaVuSans-33" transform="scale(0.015625)"/>
       </defs>
       <use xlink:href="#DejaVuSans-30"/>
       <use x="63.623047" xlink:href="#DejaVuSans-2e"/>
       <use x="95.410156" xlink:href="#DejaVuSans-33"/>
       <use x="159.033203" xlink:href="#DejaVuSans-30"/>
      </g>
     </g>
    </g>
   </g>
   <g id="patch_3">
    <path d="M 57.6 307.584 
L 57.6 41.472 
" style="fill:none;stroke:#000000;stroke-linecap:square;stroke-linejoin:miter;stroke-width:0.8;"/>
   </g>
   <g id="patch_4">
    <path d="M 414.72 307.584 
L 414.72 41.472 
" style="fill:none;stroke:#000000;stroke-linecap:square;stroke-linejoin:miter;stroke-width:0.8;"/>
   </g>
   <g id="patch_5">
    <path d="M 57.6 307.584 
L 414.72 307.584 
" style="fill:none;stroke:#000000;stroke-linecap:square;stroke-linejoin:miter;stroke-width:0.8;"/>
   </g>
   <g id="patch_6">
    <path d="M 57.6 41.472 
L 414.72 41.472 
" style="fill:none;stroke:#000000;stroke-linecap:square;stroke-linejoin:miter;stroke-width:0.8;"/>
   </g>
   <g id="text_15">
    <!-- Общее распределение RIN -->
    <g transform="translate(151.370625 35.472)scale(0.12 -0.12)">
     <defs>
      <path d="M 2522 4238 
Q 1834 4238 1429 3725 
Q 1025 3213 1025 2328 
Q 1025 1447 1429 934 
Q 1834 422 2522 422 
Q 3209 422 3611 934 
Q 4013 1447 4013 2328 
Q 4013 3213 3611 3725 
Q 3209 4238 2522 4238 
z
M 2522 4750 
Q 3503 4750 4090 4092 
Q 4678 3434 4678 2328 
Q 4678 1225 4090 567 
Q 3503 -91 2522 -91 
Q 1538 -91 948 565 
Q 359 1222 359 2328 
Q 359 3434 948 4092 
Q 1538 4750 2522 4750 
z
" id="DejaVuSans-41e" transform="scale(0.015625)"/>
      <path d="M 1991 3584 
Q 2741 3584 3169 3096 
Q 3597 2609 3597 1747 
Q 3597 888 3169 398 
Q 2741 -91 1991 -91 
Q 1238 -91 822 384 
Q 406 859 384 1747 
L 366 2463 
Q 350 2834 350 2963 
Q 350 3463 531 3831 
Q 816 4409 1308 4659 
Q 1800 4909 2625 4916 
Q 3006 4919 3175 4972 
L 3334 4516 
Q 3181 4453 3041 4450 
L 2259 4397 
Q 1866 4369 1628 4231 
Q 1006 3866 947 3388 
L 925 3213 
Q 1331 3584 1991 3584 
z
M 1991 3097 
Q 1528 3097 1259 2736 
Q 991 2375 991 1747 
Q 991 1119 1258 758 
Q 1525 397 1991 397 
Q 2450 397 2719 759 
Q 2988 1122 2988 1747 
Q 2988 2369 2719 2733 
Q 2450 3097 1991 3097 
z
" id="DejaVuSans-431" transform="scale(0.015625)"/>
      <path d="M 5275 0 
L 581 0 
L 581 3500 
L 1159 3500 
L 1159 459 
L 2638 459 
L 2638 3500 
L 3216 3500 
L 3216 459 
L 4697 459 
L 4697 3500 
L 5275 3500 
L 5275 459 
L 5734 459 
L 5734 -884 
L 5275 -884 
L 5275 0 
z
" id="DejaVuSans-449" transform="scale(0.015625)"/>
      <path d="M 3597 1894 
L 3597 1613 
L 953 1613 
Q 991 1019 1311 708 
Q 1631 397 2203 397 
Q 2534 397 2845 478 
Q 3156 559 3463 722 
L 3463 178 
Q 3153 47 2828 -22 
Q 2503 -91 2169 -91 
Q 1331 -91 842 396 
Q 353 884 353 1716 
Q 353 2575 817 3079 
Q 1281 3584 2069 3584 
Q 2775 3584 3186 3129 
Q 3597 2675 3597 1894 
z
M 3022 2063 
Q 3016 2534 2758 2815 
Q 2500 3097 2075 3097 
Q 1594 3097 1305 2825 
Q 1016 2553 972 2059 
L 3022 2063 
z
" id="DejaVuSans-435" transform="scale(0.015625)"/>
      <path id="DejaVuSans-20" transform="scale(0.015625)"/>
      <path d="M 1159 525 
L 1159 -1331 
L 581 -1331 
L 581 3500 
L 1159 3500 
L 1159 2969 
Q 1341 3281 1617 3432 
Q 1894 3584 2278 3584 
Q 2916 3584 3314 3078 
Q 3713 2572 3713 1747 
Q 3713 922 3314 415 
Q 2916 -91 2278 -91 
Q 1894 -91 1617 61 
Q 1341 213 1159 525 
z
M 3116 1747 
Q 3116 2381 2855 2742 
Q 2594 3103 2138 3103 
Q 1681 3103 1420 2742 
Q 1159 2381 1159 1747 
Q 1159 1113 1420 752 
Q 1681 391 2138 391 
Q 2594 391 2855 752 
Q 3116 1113 3116 1747 
z
" id="DejaVuSans-440" transform="scale(0.015625)"/>
      <path d="M 2194 1759 
Q 1497 1759 1228 1600 
Q 959 1441 959 1056 
Q 959 750 1161 570 
Q 1363 391 1709 391 
Q 2188 391 2477 730 
Q 2766 1069 2766 1631 
L 2766 1759 
L 2194 1759 
z
M 3341 1997 
L 3341 0 
L 2766 0 
L 2766 531 
Q 2569 213 2275 61 
Q 1981 -91 1556 -91 
Q 1019 -91 701 211 
Q 384 513 384 1019 
Q 384 1609 779 1909 
Q 1175 2209 1959 2209 
L 2766 2209 
L 2766 2266 
Q 2766 2663 2505 2880 
Q 2244 3097 1772 3097 
Q 1472 3097 1187 3025 
Q 903 2953 641 2809 
L 641 3341 
Q 956 3463 1253 3523 
Q 1550 3584 1831 3584 
Q 2591 3584 2966 3190 
Q 3341 2797 3341 1997 
z
" id="DejaVuSans-430" transform="scale(0.015625)"/>
      <path d="M 3122 3366 
L 3122 2828 
Q 2878 2963 2633 3030 
Q 2388 3097 2138 3097 
Q 1578 3097 1268 2742 
Q 959 2388 959 1747 
Q 959 1106 1268 751 
Q 1578 397 2138 397 
Q 2388 397 2633 464 
Q 2878 531 3122 666 
L 3122 134 
Q 2881 22 2623 -34 
Q 2366 -91 2075 -91 
Q 1284 -91 818 406 
Q 353 903 353 1747 
Q 353 2603 823 3093 
Q 1294 3584 2113 3584 
Q 2378 3584 2631 3529 
Q 2884 3475 3122 3366 
z
" id="DejaVuSans-441" transform="scale(0.015625)"/>
      <path d="M 3603 3500 
L 3603 0 
L 3025 0 
L 3025 3041 
L 1159 3041 
L 1159 0 
L 581 0 
L 581 3500 
L 3603 3500 
z
" id="DejaVuSans-43f" transform="scale(0.015625)"/>
      <path d="M 1384 459 
L 3053 459 
L 3053 3041 
L 1844 3041 
L 1844 2603 
Q 1844 1316 1475 628 
L 1384 459 
z
M 550 459 
Q 834 584 959 850 
Q 1266 1509 1266 2838 
L 1266 3500 
L 3631 3500 
L 3631 459 
L 4091 459 
L 4091 -884 
L 3631 -884 
L 3631 0 
L 794 0 
L 794 -884 
L 334 -884 
L 334 459 
L 550 459 
z
" id="DejaVuSans-434" transform="scale(0.015625)"/>
      <path d="M 238 0 
L 238 478 
Q 806 566 981 959 
Q 1194 1513 1194 2928 
L 1194 3500 
L 3559 3500 
L 3559 0 
L 2984 0 
L 2984 3041 
L 1769 3041 
L 1769 2694 
Q 1769 1344 1494 738 
Q 1200 91 238 0 
z
" id="DejaVuSans-43b" transform="scale(0.015625)"/>
      <path d="M 581 3500 
L 1159 3500 
L 1159 2072 
L 3025 2072 
L 3025 3500 
L 3603 3500 
L 3603 0 
L 3025 0 
L 3025 1613 
L 1159 1613 
L 1159 0 
L 581 0 
L 581 3500 
z
" id="DejaVuSans-43d" transform="scale(0.015625)"/>
      <path d="M 3578 3500 
L 3578 0 
L 3006 0 
L 3006 2809 
L 1319 0 
L 581 0 
L 581 3500 
L 1153 3500 
L 1153 697 
L 2838 3500 
L 3578 3500 
z
" id="DejaVuSans-438" transform="scale(0.015625)"/>
     </defs>
     <use xlink:href="#DejaVuSans-41e"/>
     <use x="78.710938" xlink:href="#DejaVuSans-431"/>
     <use x="140.380859" xlink:href="#DejaVuSans-449"/>
     <use x="234.570312" xlink:href="#DejaVuSans-435"/>
     <use x="296.09375" xlink:href="#DejaVuSans-435"/>
     <use x="357.617188" xlink:href="#DejaVuSans-20"/>
     <use x="389.404297" xlink:href="#DejaVuSans-440"/>
     <use x="452.880859" xlink:href="#DejaVuSans-430"/>
     <use x="514.160156" xlink:href="#DejaVuSans-441"/>
     <use x="569.140625" xlink:href="#DejaVuSans-43f"/>
     <use x="634.521484" xlink:href="#DejaVuSans-440"/>
     <use x="697.998047" xlink:href="#DejaVuSans-435"/>
     <use x="759.521484" xlink:href="#DejaVuSans-434"/>
     <use x="828.662109" xlink:href="#DejaVuSans-435"/>
     <use x="890.185547" xlink:href="#DejaVuSans-43b"/>
     <use x="954.101562" xlink:href="#DejaVuSans-435"/>
     <use x="1015.625" xlink:href="#DejaVuSans-43d"/>
     <use x="1081.005859" xlink:href="#DejaVuSans-438"/>
     <use x="1145.996094" xlink:href="#DejaVuSans-435"/>
     <use x="1207.519531" xlink:href="#DejaVuSans-20"/>
     <use x="1239.306641" xlink:href="#DejaVuSans-52"/>
     <use x="1308.789062" xlink:href="#DejaVuSans-49"/>
     <use x="1338.28125" xlink:href="#DejaVuSans-4e"/>
    </g>
   </g>
  </g>
 </g>
 <defs>
  <clipPath id="p8e97267f88">
   <rect height="266.112" width="357.12" x="57.6" y="41.472"/>
  </clipPath>
 </defs>
</svg>
